<svg xmlns="http://www.w3.org/2000/svg" viewBox="0 0 400 500" fill="none">
  <!-- Multi Head Weigher Packing Machine -->
  <rect x="50" y="420" width="300" height="60" fill="#2c3e50" rx="5"/>
  <rect x="70" y="440" width="260" height="20" fill="#34495e" rx="3"/>
  
  <!-- Main Body -->
  <rect x="80" y="200" width="240" height="220" fill="#3498db" rx="8"/>
  <rect x="90" y="210" width="220" height="200" fill="#5dade2" rx="5"/>
  
  <!-- Multi-Head Weigher Top -->
  <circle cx="130" cy="140" r="25" fill="#e74c3c"/>
  <circle cx="180" cy="140" r="25" fill="#e74c3c"/>
  <circle cx="230" cy="140" r="25" fill="#e74c3c"/>
  <circle cx="270" cy="140" r="25" fill="#e74c3c"/>
  
  <!-- Hoppers -->
  <path d="M 130 165 L 140 195 L 120 195 Z" fill="#c0392b"/>
  <path d="M 180 165 L 190 195 L 170 195 Z" fill="#c0392b"/>
  <path d="M 230 165 L 240 195 L 220 195 Z" fill="#c0392b"/>
  <path d="M 270 165 L 280 195 L 260 195 Z" fill="#c0392b"/>
  
  <!-- Control Panel -->
  <rect x="100" y="220" width="80" height="60" fill="#1a3a6b" rx="4"/>
  <rect x="200" y="225" width="100" height="50" fill="#34495e" rx="3"/>
  <rect x="205" y="230" width="90" height="40" fill="#1abc9c" rx="2"/>
  
  <!-- Conveyor -->
  <rect x="60" y="400" width="280" height="15" fill="#95a5a6" rx="2"/>
  <circle cx="90" cy="407" r="5" fill="#7f8c8d"/>
  <circle cx="150" cy="407" r="5" fill="#7f8c8d"/>
  <circle cx="210" cy="407" r="5" fill="#7f8c8d"/>
  <circle cx="270" cy="407" r="5" fill="#7f8c8d"/>
  <circle cx="310" cy="407" r="5" fill="#7f8c8d"/>
  
  <!-- Product Samples -->
  <rect x="170" y="385" width="30" height="20" fill="#fff" stroke="#2c3e50" stroke-width="1" rx="2"/>
  <rect x="210" y="385" width="30" height="20" fill="#fff" stroke="#2c3e50" stroke-width="1" rx="2"/>
  
  <text x="200" y="465" font-family="Arial, sans-serif" font-weight="bold" font-size="14" fill="#e8501c" text-anchor="middle">MULTI-HEAD</text>
</svg>
